# xmcd
# Track frame offsets:
# 150
# 21860
# 38909
# 57927
# 79645
# 96706
# 114690
# 132829
# 147962
# 166802
# 182343
# 201267
# 216146
# 238078
# 256728
#
# Disc length: 3788 seconds
# Revision: 0
# Processed by: cddbd v1.5.1PL0 Copyright (c) Steve Scherf et al.
# Submitted via: VisiTrax 2.9.10.228 - For more info visit www.synapsa.com
#
DISCID=d10eca0f
DTITLE=Various Artist - CB60336
DYEAR=1900
DGENRE=Karaoke
TTITLE0=Chesney, Kenny - Guitars And Tiki Bars
TTITLE1=Keith, Toby - Honky Tonk U
TTITLE2=Twain, Shania - Dont
TTITLE3=McGraw, Tim - Drugs Or Jesus
TTITLE4=SheDaisy - Don't Worry Bout A Thing
TTITLE5=Bentley, Dierks - Lot Of Leaving Left To Do
TTITLE6=Tritt, Travis - I See Me
TTITLE7=Fairchild, Shelly - Tiny Town
TTITLE8=Big and Rich - Big Time
TTITLE9=Roberts, Julie - Wake Up Older
TTITLE10=Lonestar - Class Reunion (That Used To Be Us)
TTITLE11=Wrights, The - Down This Road
TTITLE12=Worley, Darryl - If Something Should Happen
TTITLE13=Elam, Katrina - I Want A Cowboy
TTITLE14=Shelton, Blake - Goodbye Time
EXTD=
EXTT0=
EXTT1=
EXTT2=
EXTT3=
EXTT4=
EXTT5=
EXTT6=
EXTT7=
EXTT8=
EXTT9=
EXTT10=
EXTT11=
EXTT12=
EXTT13=
EXTT14=
PLAYORDER=
